<?xml version="1.0" encoding="UTF-8"?>
<svg id="Ebene_1" data-name="Ebene 1" xmlns="http://www.w3.org/2000/svg" viewBox="0 0 32 32">
  <defs>
    <style>
      .cls-1 {
        fill: #fff;
      }
    </style>
  </defs>
  <path class="cls-1" d="M12.72,9.31c.12-.02,2.83-.45,4.31,1.66.26.37.69.59,1.21.71.56.11,1.25.13,1.74.09.17-.01.31-.1.41-.23.09-.11.17-.26.26-.44.16-.33.46-.56.82-.62.52-.09,1.46-.31,2.33-.86l-.92-.33c-.09-.03-.16-.11-.17-.21-.04-.32-.21-1.08-.82-1.62l-.02.49s-.56-1.58-3.78-2.93l.06.37s-2.19-1.11-4.15-.88l.48.37s-1.43-.6-4.98,1.01l.46.24s-1.77.13-3.2,1.4l.68.15s-1.76,1.21-2.79,2.45l.69.03s-1.89,1.86-2.12,2.44c1.46-.81,4.68-2.34,9.51-3.28ZM18.59,9.26c.61.02,1.01.3.99,1.06-.03.72-.5,1.01-1.06.99-.69-.03-1.01-.42-.99-1.06.03-.69.41-1.01,1.06-.99Z"/>
  <path class="cls-1" d="M20.81,15.47l-.71-.6c-.18-.15-.27-.37-.27-.6l.05-1.9c-.9.04-1.8-.04-2.49-.38-.33-.16-.61-.38-.81-.67-1.27-1.81-3.72-1.44-3.75-1.43-4.79.93-8.01,2.48-9.4,3.26-2.23,2.56-2.36,5.96-2.36,5.96l1.02-1c-.5,2.97.6,4.79,2.4,6.32l.85-.31c.7-.25,1.48-.16,2.09.26l3.5,2.35.82-.98.92,1.54c2.56.6,5.41-.11,5.41-.11,0,0,2.07-2.58,2.08-4.96l1.1.67-1.7-4.81c-.22-.63-.06-1.34.42-1.81l.81-.8Z"/>
  <path class="cls-1" d="M25.4,14.02c-.35.54-1.5.29-1.34-.53.15-.8,1.26-.63,1.43-.03l5.41,1.04.02-.12-4.95-3.98s-.09-.06-.14-.08l-1.37-.47c-1.06.78-2.27,1.08-2.91,1.19-.18.03-.32.15-.4.31-.22.45-.41.77-.68.92-.01,0-.02,0-.03.01l-.05,1.86c0,.15.06.29.17.39l1.07.9,2.89,1.62c.05.03.11.04.17.02l6.07-1.86.03-.14-5.39-1.04Z"/>
</svg>